fd_4_states
version=1
nRows=23
nColumns=17
inDegrees=yes

# SIMM Motion File Header:
name fd_4_states
datacolumns 17
datarows 23
otherdata 1
range 0.030000 0.053684
endheader
time	/jointset/r_shoulder/r_shoulder_elev/value	/jointset/r_shoulder/r_shoulder_elev/speed	/jointset/r_elbow/r_elbow_flex/value	/jointset/r_elbow/r_elbow_flex/speed	/forceset/TRIlong/activation	/forceset/TRIlong/fiber_length	/forceset/TRIlat/activation	/forceset/TRIlat/fiber_length	/forceset/TRImed/activation	/forceset/TRImed/fiber_length	/forceset/BIClong/activation	/forceset/BIClong/fiber_length	/forceset/BICshort/activation	/forceset/BICshort/fiber_length	/forceset/BRA/activation	/forceset/BRA/fiber_length
      0.030000	      0.000000	      0.000000	     -0.000000	     -0.205405	      0.034772	      0.136390	      0.029938	      0.070365	      0.030323	      0.065432	      0.020000	      0.148476	      0.020000	      0.147802	      0.020000	      0.093434
      0.030061	     -0.000000	     -0.000238	     -0.000012	     -0.190982	      0.034760	      0.136390	      0.029930	      0.070365	      0.030314	      0.065432	      0.020020	      0.148476	      0.020675	      0.147802	      0.020455	      0.093434
      0.030123	     -0.000000	     -0.000490	     -0.000023	     -0.176516	      0.034747	      0.136390	      0.029921	      0.070365	      0.030306	      0.065432	      0.020047	      0.148476	      0.021556	      0.147802	      0.020735	      0.093434
      0.030430	     -0.000000	     -0.002209	     -0.000066	     -0.102778	      0.034685	      0.136390	      0.029880	      0.070365	      0.030263	      0.065432	      0.020175	      0.148476	      0.025779	      0.147797	      0.022084	      0.093433
      0.031964	     -0.000026	     -0.042499	      0.000107	      0.361997	      0.034378	      0.136392	      0.029676	      0.070366	      0.030050	      0.065433	      0.020716	      0.148474	      0.043148	      0.147729	      0.027730	      0.093419
      0.034122	     -0.000304	     -0.247079	      0.001972	      1.464100	      0.033956	      0.136395	      0.029396	      0.070367	      0.029759	      0.065434	      0.021255	      0.148469	      0.060048	      0.147587	      0.033311	      0.093391
      0.036281	     -0.001233	     -0.644581	      0.006853	      3.152907	      0.033548	      0.136399	      0.029124	      0.070369	      0.029477	      0.065436	      0.021613	      0.148465	      0.071347	      0.147447	      0.037032	      0.093366
      0.039351	     -0.004443	     -1.496139	      0.021333	      6.431520	      0.032988	      0.136406	      0.028751	      0.070373	      0.029089	      0.065440	      0.021927	      0.148459	      0.081578	      0.147277	      0.040327	      0.093339
      0.039802	     -0.005151	     -1.644254	      0.024356	      6.984142	      0.032908	      0.136407	      0.028698	      0.070374	      0.029034	      0.065441	      0.021960	      0.148459	      0.082682	      0.147256	      0.040675	      0.093335
      0.040015	     -0.005509	     -1.716136	      0.025875	      7.251241	      0.032870	      0.136407	      0.028673	      0.070374	      0.029007	      0.065441	      0.022021	      0.148458	      0.083130	      0.147246	      0.040903	      0.093334
      0.040152	     -0.005747	     -1.762777	      0.026879	      7.424198	      0.032846	      0.136408	      0.028657	      0.070375	      0.028991	      0.065442	      0.022758	      0.148458	      0.083110	      0.147239	      0.042152	      0.093333
      0.040319	     -0.006047	     -1.820537	      0.028138	      7.637952	      0.032816	      0.136408	      0.028637	      0.070375	      0.028970	      0.065442	      0.023765	      0.148457	      0.083047	      0.147232	      0.043841	      0.093331
      0.041156	     -0.007695	     -2.126086	      0.034987	      8.758647	      0.032670	      0.136410	      0.028539	      0.070377	      0.028869	      0.065444	      0.028317	      0.148447	      0.082737	      0.147198	      0.051486	      0.093319
      0.042891	     -0.012017	     -2.886754	      0.052458	     11.475687	      0.032372	      0.136415	      0.028341	      0.070381	      0.028662	      0.065448	      0.035678	      0.148409	      0.082106	      0.147140	      0.063908	      0.093283
      0.045059	     -0.019555	     -4.121106	      0.081788	     15.745705	      0.032010	      0.136423	      0.028099	      0.070387	      0.028411	      0.065455	      0.042038	      0.148356	      0.081343	      0.147085	      0.074791	      0.093235
      0.047722	     -0.032998	     -6.038034	      0.132088	     22.225320	      0.031579	      0.136433	      0.027812	      0.070398	      0.028113	      0.065466	      0.047065	      0.148299	      0.080441	      0.147038	      0.083610	      0.093184
      0.049083	     -0.041963	     -7.153294	      0.164839	     25.955445	      0.031366	      0.136439	      0.027669	      0.070406	      0.027965	      0.065474	      0.048840	      0.148274	      0.079996	      0.147020	      0.086808	      0.093161
      0.049726	     -0.046741	     -7.705355	      0.182121	     27.795896	      0.031266	      0.136441	      0.027603	      0.070410	      0.027896	      0.065478	      0.049541	      0.148264	      0.079789	      0.147012	      0.088088	      0.093151
      0.049992	     -0.048819	     -7.937502	      0.189611	     28.568948	      0.031226	      0.136443	      0.027576	      0.070411	      0.027867	      0.065479	      0.049808	      0.148259	      0.079704	      0.147009	      0.088579	      0.093147
      0.050107	     -0.049741	     -8.038959	      0.192926	     28.906661	      0.031208	      0.136443	      0.027564	      0.070412	      0.027855	      0.065480	      0.050333	      0.148257	      0.079778	      0.147008	      0.088610	      0.093145
      0.050223	     -0.050674	     -8.140805	      0.196281	     29.245597	      0.031190	      0.136444	      0.027552	      0.070413	      0.027843	      0.065481	      0.051110	      0.148256	      0.080047	      0.147007	      0.088595	      0.093144
      0.050800	     -0.055518	     -8.655183	      0.213643	     30.956810	      0.031102	      0.136447	      0.027493	      0.070417	      0.027782	      0.065485	      0.054751	      0.148244	      0.081322	      0.147000	      0.088524	      0.093135
      0.053684	     -0.084274	    -11.295859	      0.315563	     39.764921	      0.030673	      0.136462	      0.027207	      0.070441	      0.027484	      0.065510	      0.068146	      0.148171	      0.086156	      0.146960	      0.088176	      0.093101
